<mxfile host="app.diagrams.net" agent="Mozilla/5.0 (Windows NT 10.0; Win64; x64) AppleWebKit/537.36 (KHTML, like Gecko) Chrome/140.0.0.0 Safari/537.36 Edg/140.0.0.0" version="28.2.1">
  <diagram name="Pagina-1" id="46v9xwKreazTZv7d5ECx">
    <mxGraphModel dx="1034" dy="540" grid="1" gridSize="10" guides="1" tooltips="1" connect="1" arrows="1" fold="1" page="1" pageScale="1" pageWidth="827" pageHeight="1169" math="0" shadow="0">
      <root>
        <mxCell id="0" />
        <mxCell id="1" parent="0" />
        <mxCell id="6zzDSmEClzFxXLkaaQB1-3" style="edgeStyle=orthogonalEdgeStyle;rounded=0;orthogonalLoop=1;jettySize=auto;html=1;" edge="1" parent="1" source="6zzDSmEClzFxXLkaaQB1-1">
          <mxGeometry relative="1" as="geometry">
            <mxPoint x="260" y="170" as="targetPoint" />
          </mxGeometry>
        </mxCell>
        <mxCell id="6zzDSmEClzFxXLkaaQB1-1" value="" style="strokeWidth=2;html=1;shape=mxgraph.flowchart.start_2;whiteSpace=wrap;" vertex="1" parent="1">
          <mxGeometry x="210" y="10" width="100" height="100" as="geometry" />
        </mxCell>
        <mxCell id="6zzDSmEClzFxXLkaaQB1-4" value="IF UserContex&amp;nbsp;&lt;div&gt;is&lt;/div&gt;&lt;div&gt;&amp;nbsp;null&lt;/div&gt;" style="strokeWidth=2;html=1;shape=mxgraph.flowchart.start_2;whiteSpace=wrap;" vertex="1" parent="1">
          <mxGeometry x="210" y="150" width="100" height="100" as="geometry" />
        </mxCell>
        <mxCell id="6zzDSmEClzFxXLkaaQB1-14" style="edgeStyle=orthogonalEdgeStyle;rounded=0;orthogonalLoop=1;jettySize=auto;html=1;" edge="1" parent="1" source="6zzDSmEClzFxXLkaaQB1-6" target="6zzDSmEClzFxXLkaaQB1-13">
          <mxGeometry relative="1" as="geometry" />
        </mxCell>
        <mxCell id="6zzDSmEClzFxXLkaaQB1-15" value="TRUE" style="edgeLabel;html=1;align=center;verticalAlign=middle;resizable=0;points=[];" vertex="1" connectable="0" parent="6zzDSmEClzFxXLkaaQB1-14">
          <mxGeometry x="-0.1564" y="-4" relative="1" as="geometry">
            <mxPoint as="offset" />
          </mxGeometry>
        </mxCell>
        <mxCell id="6zzDSmEClzFxXLkaaQB1-17" style="edgeStyle=orthogonalEdgeStyle;rounded=0;orthogonalLoop=1;jettySize=auto;html=1;" edge="1" parent="1" source="6zzDSmEClzFxXLkaaQB1-6" target="6zzDSmEClzFxXLkaaQB1-16">
          <mxGeometry relative="1" as="geometry" />
        </mxCell>
        <mxCell id="6zzDSmEClzFxXLkaaQB1-18" value="FALSE" style="edgeLabel;html=1;align=center;verticalAlign=middle;resizable=0;points=[];" vertex="1" connectable="0" parent="6zzDSmEClzFxXLkaaQB1-17">
          <mxGeometry x="0.472" y="4" relative="1" as="geometry">
            <mxPoint as="offset" />
          </mxGeometry>
        </mxCell>
        <mxCell id="6zzDSmEClzFxXLkaaQB1-6" value="IF Database User&lt;div&gt;not find&lt;/div&gt;" style="strokeWidth=2;html=1;shape=mxgraph.flowchart.start_2;whiteSpace=wrap;" vertex="1" parent="1">
          <mxGeometry x="210" y="310" width="100" height="100" as="geometry" />
        </mxCell>
        <mxCell id="6zzDSmEClzFxXLkaaQB1-47" style="edgeStyle=orthogonalEdgeStyle;rounded=0;orthogonalLoop=1;jettySize=auto;html=1;" edge="1" parent="1" source="6zzDSmEClzFxXLkaaQB1-7">
          <mxGeometry relative="1" as="geometry">
            <mxPoint x="720" y="370" as="targetPoint" />
          </mxGeometry>
        </mxCell>
        <mxCell id="6zzDSmEClzFxXLkaaQB1-7" value="Throw&amp;nbsp;&lt;div&gt;&amp;nbsp;UnauthorizedException&lt;/div&gt;" style="strokeWidth=2;html=1;shape=mxgraph.flowchart.start_2;whiteSpace=wrap;" vertex="1" parent="1">
          <mxGeometry x="414" y="160" width="176" height="100" as="geometry" />
        </mxCell>
        <mxCell id="6zzDSmEClzFxXLkaaQB1-8" style="edgeStyle=orthogonalEdgeStyle;rounded=0;orthogonalLoop=1;jettySize=auto;html=1;entryX=0.5;entryY=0;entryDx=0;entryDy=0;entryPerimeter=0;" edge="1" parent="1" source="6zzDSmEClzFxXLkaaQB1-4" target="6zzDSmEClzFxXLkaaQB1-6">
          <mxGeometry relative="1" as="geometry" />
        </mxCell>
        <mxCell id="6zzDSmEClzFxXLkaaQB1-9" value="FALSE" style="edgeLabel;html=1;align=center;verticalAlign=middle;resizable=0;points=[];" vertex="1" connectable="0" parent="6zzDSmEClzFxXLkaaQB1-8">
          <mxGeometry x="0.0909" y="-2" relative="1" as="geometry">
            <mxPoint x="1" y="-2" as="offset" />
          </mxGeometry>
        </mxCell>
        <mxCell id="6zzDSmEClzFxXLkaaQB1-11" style="edgeStyle=orthogonalEdgeStyle;rounded=0;orthogonalLoop=1;jettySize=auto;html=1;exitX=1;exitY=0.5;exitDx=0;exitDy=0;exitPerimeter=0;entryX=0;entryY=0.396;entryDx=0;entryDy=0;entryPerimeter=0;" edge="1" parent="1" source="6zzDSmEClzFxXLkaaQB1-4" target="6zzDSmEClzFxXLkaaQB1-7">
          <mxGeometry relative="1" as="geometry" />
        </mxCell>
        <mxCell id="6zzDSmEClzFxXLkaaQB1-12" value="TRUE" style="edgeLabel;html=1;align=center;verticalAlign=middle;resizable=0;points=[];" vertex="1" connectable="0" parent="6zzDSmEClzFxXLkaaQB1-11">
          <mxGeometry x="-0.2644" y="2" relative="1" as="geometry">
            <mxPoint as="offset" />
          </mxGeometry>
        </mxCell>
        <mxCell id="6zzDSmEClzFxXLkaaQB1-46" style="edgeStyle=orthogonalEdgeStyle;rounded=0;orthogonalLoop=1;jettySize=auto;html=1;" edge="1" parent="1" source="6zzDSmEClzFxXLkaaQB1-13">
          <mxGeometry relative="1" as="geometry">
            <mxPoint x="720" y="500" as="targetPoint" />
          </mxGeometry>
        </mxCell>
        <mxCell id="6zzDSmEClzFxXLkaaQB1-13" value="Throw&amp;nbsp;&lt;br&gt;ResourceNotFoundException" style="ellipse;whiteSpace=wrap;html=1;" vertex="1" parent="1">
          <mxGeometry x="420" y="320" width="220" height="80" as="geometry" />
        </mxCell>
        <mxCell id="6zzDSmEClzFxXLkaaQB1-20" style="edgeStyle=orthogonalEdgeStyle;rounded=0;orthogonalLoop=1;jettySize=auto;html=1;" edge="1" parent="1" source="6zzDSmEClzFxXLkaaQB1-16" target="6zzDSmEClzFxXLkaaQB1-19">
          <mxGeometry relative="1" as="geometry" />
        </mxCell>
        <mxCell id="6zzDSmEClzFxXLkaaQB1-28" style="edgeStyle=orthogonalEdgeStyle;rounded=0;orthogonalLoop=1;jettySize=auto;html=1;" edge="1" parent="1" source="6zzDSmEClzFxXLkaaQB1-16" target="6zzDSmEClzFxXLkaaQB1-23">
          <mxGeometry relative="1" as="geometry" />
        </mxCell>
        <mxCell id="6zzDSmEClzFxXLkaaQB1-16" value="IF&lt;br&gt;&lt;div&gt;utente.password&lt;br&gt;= oldPasswor&lt;/div&gt;" style="ellipse;whiteSpace=wrap;html=1;" vertex="1" parent="1">
          <mxGeometry x="220" y="460" width="80" height="80" as="geometry" />
        </mxCell>
        <mxCell id="6zzDSmEClzFxXLkaaQB1-22" style="edgeStyle=orthogonalEdgeStyle;rounded=0;orthogonalLoop=1;jettySize=auto;html=1;entryX=0.5;entryY=0;entryDx=0;entryDy=0;" edge="1" parent="1" source="6zzDSmEClzFxXLkaaQB1-19" target="6zzDSmEClzFxXLkaaQB1-21">
          <mxGeometry relative="1" as="geometry" />
        </mxCell>
        <mxCell id="6zzDSmEClzFxXLkaaQB1-27" style="edgeStyle=orthogonalEdgeStyle;rounded=0;orthogonalLoop=1;jettySize=auto;html=1;" edge="1" parent="1" source="6zzDSmEClzFxXLkaaQB1-19" target="6zzDSmEClzFxXLkaaQB1-24">
          <mxGeometry relative="1" as="geometry" />
        </mxCell>
        <mxCell id="6zzDSmEClzFxXLkaaQB1-19" value="IF&amp;nbsp;&lt;br&gt;newPassoword&lt;br&gt;=&lt;div&gt;confirmPassword&lt;/div&gt;" style="ellipse;whiteSpace=wrap;html=1;" vertex="1" parent="1">
          <mxGeometry x="220" y="610" width="80" height="80" as="geometry" />
        </mxCell>
        <mxCell id="6zzDSmEClzFxXLkaaQB1-30" style="edgeStyle=orthogonalEdgeStyle;rounded=0;orthogonalLoop=1;jettySize=auto;html=1;" edge="1" parent="1" source="6zzDSmEClzFxXLkaaQB1-21" target="6zzDSmEClzFxXLkaaQB1-29">
          <mxGeometry relative="1" as="geometry" />
        </mxCell>
        <mxCell id="6zzDSmEClzFxXLkaaQB1-34" value="FALSE" style="edgeLabel;html=1;align=center;verticalAlign=middle;resizable=0;points=[];" vertex="1" connectable="0" parent="6zzDSmEClzFxXLkaaQB1-30">
          <mxGeometry x="-0.128" relative="1" as="geometry">
            <mxPoint as="offset" />
          </mxGeometry>
        </mxCell>
        <mxCell id="6zzDSmEClzFxXLkaaQB1-21" value="IF&lt;br&gt;oldPAssword&lt;br&gt;=&lt;br&gt;newPassword" style="ellipse;whiteSpace=wrap;html=1;" vertex="1" parent="1">
          <mxGeometry x="220" y="740" width="80" height="80" as="geometry" />
        </mxCell>
        <mxCell id="6zzDSmEClzFxXLkaaQB1-45" style="edgeStyle=orthogonalEdgeStyle;rounded=0;orthogonalLoop=1;jettySize=auto;html=1;" edge="1" parent="1" source="6zzDSmEClzFxXLkaaQB1-23">
          <mxGeometry relative="1" as="geometry">
            <mxPoint x="720" y="650" as="targetPoint" />
          </mxGeometry>
        </mxCell>
        <mxCell id="6zzDSmEClzFxXLkaaQB1-23" value="Throw&lt;br&gt;BadCredentialsException" style="ellipse;whiteSpace=wrap;html=1;" vertex="1" parent="1">
          <mxGeometry x="440" y="460" width="200" height="80" as="geometry" />
        </mxCell>
        <mxCell id="6zzDSmEClzFxXLkaaQB1-44" style="edgeStyle=orthogonalEdgeStyle;rounded=0;orthogonalLoop=1;jettySize=auto;html=1;" edge="1" parent="1" source="6zzDSmEClzFxXLkaaQB1-24">
          <mxGeometry relative="1" as="geometry">
            <mxPoint x="720" y="790" as="targetPoint" />
          </mxGeometry>
        </mxCell>
        <mxCell id="6zzDSmEClzFxXLkaaQB1-24" value="Throw&lt;br&gt;ConflictException" style="ellipse;whiteSpace=wrap;html=1;" vertex="1" parent="1">
          <mxGeometry x="460" y="610" width="140" height="80" as="geometry" />
        </mxCell>
        <mxCell id="6zzDSmEClzFxXLkaaQB1-43" style="edgeStyle=orthogonalEdgeStyle;rounded=0;orthogonalLoop=1;jettySize=auto;html=1;" edge="1" parent="1" source="6zzDSmEClzFxXLkaaQB1-25">
          <mxGeometry relative="1" as="geometry">
            <mxPoint x="720" y="910" as="targetPoint" />
          </mxGeometry>
        </mxCell>
        <mxCell id="6zzDSmEClzFxXLkaaQB1-25" value="Throw&lt;br&gt;ConflictException" style="ellipse;whiteSpace=wrap;html=1;" vertex="1" parent="1">
          <mxGeometry x="460" y="750" width="140" height="80" as="geometry" />
        </mxCell>
        <mxCell id="6zzDSmEClzFxXLkaaQB1-26" style="edgeStyle=orthogonalEdgeStyle;rounded=0;orthogonalLoop=1;jettySize=auto;html=1;entryX=0.014;entryY=0.37;entryDx=0;entryDy=0;entryPerimeter=0;" edge="1" parent="1" source="6zzDSmEClzFxXLkaaQB1-21" target="6zzDSmEClzFxXLkaaQB1-25">
          <mxGeometry relative="1" as="geometry" />
        </mxCell>
        <mxCell id="6zzDSmEClzFxXLkaaQB1-33" value="TRUE" style="edgeLabel;html=1;align=center;verticalAlign=middle;resizable=0;points=[];" vertex="1" connectable="0" parent="6zzDSmEClzFxXLkaaQB1-26">
          <mxGeometry x="-0.3545" y="-3" relative="1" as="geometry">
            <mxPoint as="offset" />
          </mxGeometry>
        </mxCell>
        <mxCell id="6zzDSmEClzFxXLkaaQB1-31" style="edgeStyle=orthogonalEdgeStyle;rounded=0;orthogonalLoop=1;jettySize=auto;html=1;" edge="1" parent="1" source="6zzDSmEClzFxXLkaaQB1-29">
          <mxGeometry relative="1" as="geometry">
            <mxPoint x="460" y="910" as="targetPoint" />
          </mxGeometry>
        </mxCell>
        <mxCell id="6zzDSmEClzFxXLkaaQB1-32" value="CATCH" style="edgeLabel;html=1;align=center;verticalAlign=middle;resizable=0;points=[];" vertex="1" connectable="0" parent="6zzDSmEClzFxXLkaaQB1-31">
          <mxGeometry x="-0.3844" y="3" relative="1" as="geometry">
            <mxPoint as="offset" />
          </mxGeometry>
        </mxCell>
        <mxCell id="6zzDSmEClzFxXLkaaQB1-29" value="try&amp;nbsp;&lt;br&gt;salva nuova password nel database" style="ellipse;whiteSpace=wrap;html=1;" vertex="1" parent="1">
          <mxGeometry x="220" y="870" width="80" height="80" as="geometry" />
        </mxCell>
        <mxCell id="6zzDSmEClzFxXLkaaQB1-35" value="Throw&lt;br&gt;RuntimeException" style="ellipse;whiteSpace=wrap;html=1;" vertex="1" parent="1">
          <mxGeometry x="460" y="870" width="200" height="80" as="geometry" />
        </mxCell>
        <mxCell id="6zzDSmEClzFxXLkaaQB1-36" value="" style="verticalLabelPosition=bottom;verticalAlign=top;html=1;shape=mxgraph.flowchart.on-page_reference;" vertex="1" parent="1">
          <mxGeometry x="210" y="1060" width="60" height="60" as="geometry" />
        </mxCell>
        <mxCell id="6zzDSmEClzFxXLkaaQB1-37" style="edgeStyle=orthogonalEdgeStyle;rounded=0;orthogonalLoop=1;jettySize=auto;html=1;entryX=0.855;entryY=0.145;entryDx=0;entryDy=0;entryPerimeter=0;" edge="1" parent="1" source="6zzDSmEClzFxXLkaaQB1-29" target="6zzDSmEClzFxXLkaaQB1-36">
          <mxGeometry relative="1" as="geometry" />
        </mxCell>
        <mxCell id="6zzDSmEClzFxXLkaaQB1-39" value="EXECUTE" style="edgeLabel;html=1;align=center;verticalAlign=middle;resizable=0;points=[];" vertex="1" connectable="0" parent="6zzDSmEClzFxXLkaaQB1-37">
          <mxGeometry x="-0.0909" y="-4" relative="1" as="geometry">
            <mxPoint x="-4" y="-2" as="offset" />
          </mxGeometry>
        </mxCell>
        <mxCell id="6zzDSmEClzFxXLkaaQB1-42" style="edgeStyle=orthogonalEdgeStyle;rounded=0;orthogonalLoop=1;jettySize=auto;html=1;entryX=1;entryY=0.5;entryDx=0;entryDy=0;entryPerimeter=0;" edge="1" parent="1" source="6zzDSmEClzFxXLkaaQB1-35" target="6zzDSmEClzFxXLkaaQB1-36">
          <mxGeometry relative="1" as="geometry">
            <Array as="points">
              <mxPoint x="720" y="910" />
              <mxPoint x="720" y="1090" />
            </Array>
          </mxGeometry>
        </mxCell>
      </root>
    </mxGraphModel>
  </diagram>
</mxfile>
